<?xml version="1.0" standalone="no"?>
<!DOCTYPE svg PUBLIC "-//W3C//DTD SVG 20010904//EN"
 "http://www.w3.org/TR/2001/REC-SVG-20010904/DTD/svg10.dtd">
<svg version="1.0" xmlns="http://www.w3.org/2000/svg"
 width="76.000000pt" height="76.000000pt" viewBox="0 0 76.000000 76.000000"
 preserveAspectRatio="xMidYMid meet">
<metadata>
Created by potrace 1.11, written by Peter Selinger 2001-2013
</metadata>
<g transform="translate(0.000000,76.000000) scale(0.100000,-0.100000)"
fill="#000000" stroke="none">
<path d="M354 705 c-29 -36 -39 -43 -51 -34 -7 7 -15 10 -17 8 -2 -2 -43 -81
-91 -176 -47 -94 -92 -176 -98 -181 -7 -5 -29 -15 -49 -21 -21 -7 -38 -16 -38
-20 0 -13 76 -51 101 -51 13 0 39 9 57 20 18 11 41 20 52 20 18 0 20 7 20 55
0 51 42 274 56 297 3 5 14 2 25 -8 23 -20 25 -38 4 -31 -21 9 -26 -6 -14 -42
14 -39 44 -58 65 -40 8 6 14 19 15 28 0 12 2 11 8 -4 5 -12 3 -25 -6 -33 -12
-13 -17 -27 -14 -45 1 -4 -18 3 -42 17 -60 36 -79 33 -34 -5 64 -52 83 -114
35 -114 -33 0 -36 -3 -41 -46 -6 -50 6 -73 39 -79 24 -4 30 -11 35 -40 4 -19
7 -32 8 -28 0 4 14 2 31 -3 16 -6 27 -15 24 -20 -3 -5 0 -9 6 -9 6 0 8 -5 4
-11 -11 -18 98 -7 116 12 8 9 22 18 30 21 9 3 3 8 -16 12 -17 4 -43 2 -58 -4
-33 -12 -57 -14 -39 -2 6 4 13 23 15 42 3 31 6 35 33 35 29 1 30 2 33 58 l3
57 -36 0 c-33 0 -35 2 -35 33 0 25 10 43 43 76 42 44 29 44 -35 0 -33 -24 -33
-24 -34 9 -1 15 -5 38 -9 52 -5 15 -4 22 1 17 5 -5 10 -13 10 -18 1 -5 2 -13
3 -17 0 -4 10 -8 22 -9 20 -2 59 47 59 75 0 19 -57 15 -65 -5 -6 -14 -10 -10
-20 21 -21 71 -56 73 -72 4 -6 -31 -9 -33 -26 -15 -7 7 -10 30 -7 57 3 28 8
40 13 33 5 -7 15 -13 23 -13 12 0 13 8 8 37 l-7 36 47 -34 c107 -78 120 -80
41 -6 -44 42 -83 76 -87 77 -4 0 -23 -20 -44 -45z"/>
<path d="M715 503 c42 -103 13 -280 -59 -351 -58 -59 -177 -83 -240 -50 -10 6
-38 28 -62 50 -66 61 -112 40 -53 -23 30 -32 31 -34 11 -37 -32 -5 -76 23
-122 78 -28 34 -46 48 -53 41 -29 -29 53 -135 140 -177 45 -22 70 -28 132 -28
96 -1 128 6 178 37 116 74 183 210 170 350 -5 52 -30 127 -43 127 -3 0 -3 -8
1 -17z"/>
</g>
</svg>
